<?xml version="1.0" encoding="utf-8"?>
<!DOCTYPE svg PUBLIC "-//W3C//DTD SVG 1.1//EN" "http://www.w3.org/Graphics/SVG/1.1/DTD/svg11.dtd"><svg
    id="ic_fluent_bot_24_regular" width="16" height="16" style="width:16px;height:16px;" version="1.1"
    xmlns="http://www.w3.org/2000/svg" viewBox="0 0 500 500" enable-background="new 0 0 500 500" xml:space="preserve">
    <path fill="#000000"
        d="M394.23 300.48 q22.84 0 39.66 16.23 q16.83 16.22 16.83 40.26 l0 21.64 q0 20.43 -9.01 39.66 q-9.02 19.23 -24.64 32.45 q-57.69 49.28 -167.06 49.28 q-109.38 0 -167.07 -49.28 q-15.62 -13.22 -24.64 -31.85 q-9.02 -18.63 -9.02 -40.26 l0 -21.64 q0 -24.04 16.83 -40.26 q16.83 -16.23 39.66 -16.23 l288.46 0 ZM394.23 337.74 l-288.46 0 q-7.21 0 -12.62 5.41 q-5.41 5.41 -5.41 13.82 l0 21.64 q0 26.44 19.23 43.27 q48.08 40.86 143.03 40.86 q94.95 0 143.03 -40.86 q19.23 -16.83 19.23 -43.27 l0 -22.84 q0 -7.21 -5.41 -12.62 q-5.41 -5.41 -12.62 -5.41 ZM247.6 0 l2.4 0 q7.21 0 12.62 4.21 q5.41 4.21 5.41 11.43 l1.2 21.63 l87.74 0 q22.84 0 39.06 16.23 q16.23 16.22 16.23 40.27 l0 112.98 q0 22.84 -16.23 39.06 q-16.22 16.22 -39.06 16.22 l-213.94 0 q-22.84 0 -39.06 -16.22 q-16.23 -16.22 -16.23 -39.06 l0 -112.98 q0 -24.04 16.23 -40.27 q16.22 -16.23 39.06 -16.23 l87.74 0 l0 -19.23 q0 -7.21 4.8 -12.02 q4.81 -4.81 12.03 -6.01 l2.4 0 l-2.4 0 ZM356.97 74.52 l-213.94 0 q-7.21 0 -12.62 5.41 q-5.41 5.41 -5.41 13.82 l0 112.98 q0 7.21 5.41 12.62 q5.41 5.41 12.62 5.41 l213.94 0 q7.21 0 12.62 -5.41 q5.41 -5.41 5.41 -12.62 l0 -112.98 q0 -8.41 -5.41 -13.82 q-5.41 -5.41 -12.62 -5.41 ZM193.51 111.78 q8.41 0 16.23 4.2 q7.81 4.2 12.02 11.42 q4.21 7.22 4.21 16.22 q0 9.01 -4.21 16.22 q-4.2 7.22 -12.02 11.42 q-7.82 4.21 -16.23 3.01 q-12.02 0 -21.03 -9.02 q-9.02 -9.01 -9.02 -21.63 q0 -12.62 9.02 -21.63 q9.01 -9.02 21.03 -10.22 ZM306.49 111.78 q8.41 0 15.63 4.2 q7.21 4.2 12.02 11.42 q4.81 7.22 4.81 16.22 q0 9.01 -4.81 16.22 q-4.81 7.22 -12.02 11.42 q-7.22 4.21 -15.63 3.01 q-13.22 0 -21.63 -9.02 q-8.42 -9.01 -8.42 -21.63 q0 -12.62 8.42 -21.63 q8.41 -9.02 21.63 -10.22 Z" />
</svg>