<?xml version="1.0" encoding="utf-8"?>
<!DOCTYPE svg PUBLIC "-//W3C//DTD SVG 1.1//EN" "http://www.w3.org/Graphics/SVG/1.1/DTD/svg11.dtd"><svg
    id="ic_fluent_bot_sparkle_24_regular" width="16" height="16" style="width:16px;height:16px;" version="1.1"
    xmlns="http://www.w3.org/2000/svg" viewBox="0 0 500 500" enable-background="new 0 0 500 500" xml:space="preserve">
    <path fill="#FFFFFF" transform="translate(25, 0) scale(1.1)"
        d="M352.07 187.77 q0 1.09 0 2.19 q-9.82 -8.74 -22.92 -8.74 q-5.46 0 -10.92 2.19 l0 -98.26 q0 -7.64 -4.91 -12.55 q-4.91 -4.91 -11.46 -4.91 l-194.33 0 q-6.55 0 -11.46 4.91 q-4.91 4.91 -4.91 12.55 l0 102.62 q0 6.55 4.91 11.47 q4.91 4.91 11.46 4.91 l188.87 0 l-10.92 34.93 l-177.95 0 q-20.74 0 -35.48 -15.28 q-14.74 -15.28 -14.74 -36.03 l0 -102.62 q0 -21.83 14.74 -36.57 q14.74 -14.74 35.48 -14.74 l79.7 0 l0 -17.46 q0 -6.55 4.37 -10.92 q4.37 -4.37 10.91 -5.46 l2.18 0 q6.55 0 11.47 3.82 q4.91 3.82 4.91 10.37 l1.09 19.65 l79.7 0 q20.74 0 35.48 14.74 q14.73 14.74 14.73 36.57 l0 102.62 ZM228.71 272.93 l2.19 0 l-157.21 0 q-20.74 0 -36.02 14.73 q-15.29 14.74 -15.29 36.58 l0 19.65 q0 19.65 8.19 36.57 q8.19 16.92 22.38 28.93 q52.4 44.76 151.74 44.76 q70.97 0 119 -22.93 q-9.83 -2.18 -16.93 -8.19 q-7.09 -6 -10.37 -14.73 l0 -2.19 q-38.21 14.2 -91.71 14.2 q-86.24 0 -129.91 -37.12 q-17.47 -15.29 -17.47 -39.3 l0 -19.65 q0 -7.65 4.91 -12.56 q4.91 -4.91 11.46 -4.91 l131 0 q0 -10.92 6.55 -20.2 q6.55 -9.28 16.38 -12.55 l1.09 -1.09 ZM181.77 129.91 q1.09 -16.37 -13.65 -25.1 q-14.74 -8.74 -28.93 0 q-14.19 8.73 -14.19 25.1 q0 12.01 8.74 20.2 q8.73 8.19 20.19 8.19 q11.46 0 19.65 -8.19 q8.19 -8.19 8.19 -20.2 ZM256 101.53 q16.38 0 25.12 14.19 q8.74 14.19 0 28.93 q-8.74 14.74 -25.12 13.65 q-12 0 -20.19 -8.19 q-8.19 -8.19 -8.19 -19.65 q0 -11.46 8.19 -19.65 q8.19 -8.19 20.19 -9.28 ZM297.49 350.44 q-12.01 -15.29 -30.57 -21.84 l-31.66 -9.82 q-7.64 -3.28 -7.64 -12.01 q0 -8.74 7.64 -12 l31.66 -9.83 q14.19 -5.45 24.56 -15.82 q10.38 -10.38 15.82 -24.57 l9.83 -31.66 q3.27 -8.73 12 -8.73 q8.74 0 12.02 8.73 l9.82 30.57 q4.37 15.28 15.28 25.66 q10.92 10.38 26.21 15.82 l31.66 9.83 q7.64 3.27 7.64 12 q0 8.74 -7.64 12.01 l-31.66 9.82 q-14.19 4.37 -25.11 15.28 q-10.92 10.92 -15.29 25.12 l-10.91 31.66 q-1.09 3.27 -4.92 6.55 q-3.82 3.27 -9.83 1.09 q-6 -2.19 -8.19 -7.63 l-9.82 -31.66 q-4.37 -9.83 -10.92 -18.56 ZM472.16 436.68 l-16.37 -5.46 q-17.47 -5.46 -22.93 -22.92 l-5.46 -17.47 q-2.18 -4.37 -7.09 -4.37 q-4.92 0 -6 4.37 l-6.55 17.47 q-5.46 16.37 -21.83 22.92 l-17.47 5.46 q-4.37 1.09 -4.37 6 q0 4.92 4.37 7.09 l17.47 5.46 q17.46 5.46 22.92 22.93 l5.46 17.46 q2.18 4.37 6.55 4.37 q4.37 0 6.55 -4.37 l5.46 -17.46 q5.46 -17.47 22.93 -22.93 l17.46 -5.46 q4.37 -2.18 4.37 -7.09 q0 -4.92 -4.37 -6 l-1.09 0 Z" />
</svg>